<svg xmlns="http://www.w3.org/2000/svg" version="1.1" xmlns:xlink="http://www.w3.org/1999/xlink" viewBox="0 0 13.046625905548943 3.7260812382547073"><g transform="matrix(0.7272095454186646,0,0,0.7272095454186646,2.2877172031589046,1.4594393214199948)"><g transform="matrix(1,0,0,1,0,0)" clip-path="url(#SvgjsClipPath5385)"><g clip-path="url(#SvgjsClipPath5383b28996cd-3c67-453d-b685-88e7199ee47a)"><path d=" M 10.274459230272043 1.6031211562756258 C 10.244395624354063 1.6031430301328966 10.216658226590987 1.5869459166684947 10.201903012858429 1.5607523192262975 C 10.179465044147891 1.5207549080727458 10.193621483227501 1.4701430333401764 10.233554830638404 1.447591246195888 C 10.551394981034678 1.270998345346813 10.822511747635836 1.0211158829687437 11.02438431777827 0.7187008052059036 C 11.036722608486908 0.7003997123746288 11.055826756734218 0.687750714177445 11.07749265695153 0.6835373800815996 C 11.099158557168845 0.6793240459857521 11.121610789308406 0.6838916391811645 11.139908460274903 0.6962350039425127 C 11.158209553106177 0.708573294651152 11.17085855130336 0.7276774428984609 11.175071885399207 0.7493433431157766 C 11.179285219495053 0.7710092433330897 11.17471762629964 0.7934614754726512 11.162374261538293 0.8117591464391465 C 10.945149362028065 1.1348505368749466 10.654947774251147 1.402294792738034 10.315230499231527 1.5924707023433535 C 10.302782471969303 1.599468843748402 10.28873953518325 1.603137202745575 10.274459230272043 1.6031211562756258 Z" fill="#c84449" transform="matrix(1,0,0,1,0,0)" fill-rule="nonzero"></path></g><g clip-path="url(#SvgjsClipPath5383b28996cd-3c67-453d-b685-88e7199ee47a)"><path d=" M 11.284288676394288 0.4348994905793444 C 11.276281819366545 0.4349316776204408 11.268312046046473 0.43381075310285255 11.260624699063518 0.4315712237255096 C 11.239458821992663 0.42530389591891615 11.221650785100387 0.4108828438061858 11.211120290956917 0.39148226538418807 C 11.200589796813443 0.37208168696218813 11.19819997187825 0.34929174052140355 11.204476837239312 0.3281286899082986 C 11.246092695491459 0.16690718901183688 11.206715161503098 -0.004481913839149199 11.098904212635649 -0.13137183193223895 C 10.989670494492767 -0.24892621720970765 10.868920973035612 -0.3069379084720598 10.739983915118023 -0.3029772709159969 C 10.566348233353422 -0.2980181533037818 10.37227699310627 -0.180996290722923 10.207461218504333 0.01796750179936668 C 10.193391117830501 0.034969001803530686 10.173143291958992 0.04568461085961395 10.151172300686707 0.04775687480915847 C 10.12920130941442 0.049829138758702984 10.107307022852877 0.04308829712528284 10.090306225249323 0.02901734775409992 C 10.05492390465465 -0.0002795564037488818 10.049977637201694 -0.052707011725883324 10.07925637929459 -0.08810436283237244 C 10.274492512940583 -0.324011917432237 10.513528638383052 -0.4629670585798701 10.734924949500193 -0.46932404827069873 C 10.913053791517472 -0.474682557905373 11.07720391274864 -0.39886463897499747 11.2205190834748 -0.24463275296825993 C 11.36776566497429 -0.07430056897306336 11.421334026864741 0.1577874733569724 11.363634558189728 0.3754233619013022 C 11.353178361652512 0.41056496072397963 11.320952447499508 0.43472087875729293 11.284288676394288 0.4348994905793444 Z" fill="#c84449" transform="matrix(1,0,0,1,0,0)" fill-rule="nonzero"></path></g><g clip-path="url(#SvgjsClipPath5383b28996cd-3c67-453d-b685-88e7199ee47a)"><path d=" M 8.825864364808659 0.4275107381638308 C 8.787069889324336 0.42747366572588974 8.753448944491524 0.4006321393378065 8.744821066917762 0.36280923052526737 C 8.690204207846321 0.1238063877513369 8.738164533210092 -0.09199843505136107 8.88028152786887 -0.2447991663109501 C 9.021426436264981 -0.4049188965591168 9.232179027856072 -0.4855527236570668 9.44415649824569 -0.4605374237765693 C 9.489829942302583 -0.45558437243188554 9.522846301790885 -0.41455230833857076 9.517910891726686 -0.3688769546219399 C 9.515532562681473 -0.34693691843565616 9.50453569703926 -0.32684037586739284 9.48733963929352 -0.3130086285118365 C 9.47014358154778 -0.2991768811562779 9.448157046485873 -0.2927430368060922 9.426217139903516 -0.2951225611409432 C 9.26646694902498 -0.3145075895315772 9.10753420292334 -0.25319248379456255 9.002195942724866 -0.1315382452749247 C 8.899019670255964 -0.020307567019743122 8.865071348346842 0.1420452901103565 8.907074076042246 0.3257323377735394 C 8.917309509595079 0.3705275579769729 8.889296598385492 0.4151396091267119 8.844502659190137 0.4253806473773778 C 8.838389766382885 0.42678932380221846 8.832137464569275 0.4275038725809166 8.825864364808659 0.4275107381638308 Z" fill="#c84449" transform="matrix(1,0,0,1,0,0)" fill-rule="nonzero"></path></g><g clip-path="url(#SvgjsClipPath5383b28996cd-3c67-453d-b685-88e7199ee47a)"><path d=" M 10.060451671570418 1.7191778214688693 C 10.04763233570004 1.7191667840944451 10.03498890620229 1.7161938695909191 10.023507909492842 1.710491044980358 C 9.511786880715627 1.4566108493697822 9.116721605165347 1.081448609605439 8.917624681968904 0.8151872612985951 C 8.904405247494559 0.7975084371701189 8.898752687151868 0.7753011150148528 8.901911226794518 0.7534535087909913 C 8.905069766437169 0.73160590256713 8.91678050678143 0.7119088175968937 8.934465712249313 0.6986979214143507 C 8.971228732784127 0.6711256560132404 9.023382786732448 0.6785762351487148 9.050955052133556 0.7153392556835294 C 9.23853617201573 0.9663571417998038 9.612000995684616 1.320384887042293 10.097528564322147 1.5612515592543728 C 10.117303735002698 1.571055904423509 10.1323730924931 1.5883157475506484 10.139420316391096 1.6092327070565637 C 10.14646754028909 1.630149666562479 10.144915119904438 1.6530096252434643 10.13510469710195 1.6727817815264021 C 10.121085492250462 1.7012010301876026 10.092140654711331 1.7191899305574416 10.060451671570418 1.7191778214688693 Z" fill="#c84449" transform="matrix(1,0,0,1,0,0)" fill-rule="nonzero"></path></g><g clip-path="url(#SvgjsClipPath5383b28996cd-3c67-453d-b685-88e7199ee47a)"><path d=" M 10.125219744546058 1.1707460092938486 C 9.965462935561952 1.1707460092938486 9.92885200016976 0.9361364787669817 9.863984079188505 0.2656571210618085 C 9.844347304750876 0.06186734160145668 9.816855820538194 -0.2225663437273282 9.782308410595382 -0.3684109972624021 C 9.754583947702931 -0.23767667524374253 9.738641549473058 0.003323127642490209 9.728057660877862 0.162747109941214 C 9.69633927776081 0.6418511235508408 9.67813365807033 0.8367544305114496 9.540310127652997 0.8488027565223351 C 9.402486597235669 0.8608510825332205 9.34354299125424 0.7370062729019997 9.314487221620256 0.6461445877922887 L 8.60869495259589 0.6461445877922887 C 8.562741176927373 0.6461445877922887 8.52548828125 0.6088916921149181 8.52548828125 0.5629379164463995 C 8.52548828125 0.516984140777883 8.562741176927373 0.47973124510051024 8.60869495259589 0.47973124510051024 L 9.377524595831902 0.47973124510051024 C 9.415247058470264 0.47973368076196876 9.448248394673477 0.5051130196136151 9.457935523020568 0.5415704432447768 L 9.45953309111041 0.5476278889187578 C 9.468193422643846 0.5902682364324938 9.483800021208362 0.6311962038495236 9.505729435041648 0.6687768023983718 C 9.534152833973403 0.5748531117831319 9.550727602905503 0.3246007270432364 9.562309971556852 0.15173054665501784 C 9.596324858803051 -0.3621538555771915 9.619955553465283 -0.6091778214688681 9.783806130679608 -0.6091778214688681 C 9.93434364047859 -0.6091778214688681 9.967260199663023 -0.39949700967722773 10.029931464520747 0.2495150268207047 C 10.0519313084246 0.47760115431405503 10.083183734182114 0.8006427351473344 10.124420960501139 0.9458883006487173 C 10.152777794095817 0.8642791973926691 10.184329763870178 0.7331454833515505 10.207627631847027 0.6367255925959334 C 10.292298740608603 0.2862590928870501 10.338561649876917 0.11778222474589517 10.464270288946286 0.11778222474589517 C 10.584653701049518 0.11778222474589517 10.614940929419422 0.2646253583371191 10.650020862058849 0.4346332292310384 C 10.661421367084523 0.49809621253887526 10.6772357488918 0.5606864662740005 10.697348816720389 0.6219480877648993 C 10.700677083574226 0.6169889701526887 10.704005350428062 0.6117303085236281 10.706601398574053 0.6073037136080273 C 10.736356104247342 0.5595430842554858 10.78618025904926 0.47959811442635725 10.908926740618716 0.47959811442635725 L 11.565826769560237 0.47959811442635725 C 11.611780545228754 0.47959811442635725 11.649033440906127 0.5168510101037276 11.649033440906127 0.5628047857722465 C 11.649033440906127 0.6087585614407629 11.611780545228754 0.6460114571181355 11.565826769560237 0.6460114571181355 L 10.908760327276024 0.6460114571181355 C 10.880636472361113 0.6460114571181355 10.873746959973673 0.6534667748707257 10.847653347839604 0.6953030892234393 C 10.822158823739223 0.7362074888570771 10.779490442673051 0.8047032207090132 10.68516736003535 0.8047032207090132 C 10.556230302117761 0.8047032207090132 10.522548241556946 0.64125203551715 10.486869220883829 0.4682487244547784 C 10.479646881811005 0.4333019224895036 10.469828494592191 0.38564114114257797 10.45934445400261 0.3455688082223999 C 10.42775920155971 0.4335349011692724 10.392779116925897 0.5782146613055061 10.369248270269281 0.6757994454599634 C 10.286374425608775 1.0190768887645627 10.244704524598754 1.1707460092938486 10.125219744546058 1.1707460092938486 Z" fill="#382d5e" transform="matrix(1,0,0,1,0,0)" fill-rule="nonzero"></path></g></g><g><path d=" M 0.20400000000000001 0.05999999999999983 L 0.7065 0.05999999999999983 Q 0.7455 0.05999999999999983 0.77175 0.08474999999999988 Q 0.798 0.10949999999999993 0.798 0.14849999999999985 Q 0.798 0.18599999999999983 0.77175 0.20924999999999983 Q 0.7455 0.23249999999999982 0.7065 0.23249999999999982 L 0.28650000000000003 0.23249999999999982 L 0.3 0.20699999999999985 L 0.3 0.49949999999999983 L 0.28800000000000003 0.4874999999999998 L 0.639 0.4874999999999998 Q 0.678 0.4874999999999998 0.70425 0.5122499999999999 Q 0.7305 0.5369999999999998 0.7305 0.5759999999999998 Q 0.7305 0.6134999999999999 0.70425 0.6367499999999999 Q 0.678 0.6599999999999999 0.639 0.6599999999999999 L 0.2925 0.6599999999999999 L 0.3 0.6479999999999999 L 0.3 0.9509999999999998 L 0.28800000000000003 0.9374999999999999 L 0.7065 0.9374999999999999 Q 0.7455 0.9374999999999999 0.77175 0.9637499999999999 Q 0.798 0.9899999999999999 0.798 1.0245 Q 0.798 1.0619999999999998 0.77175 1.0859999999999999 Q 0.7455 1.1099999999999999 0.7065 1.1099999999999999 L 0.20400000000000001 1.1099999999999999 Q 0.165 1.1099999999999999 0.13875 1.0837499999999998 Q 0.1125 1.0574999999999999 0.1125 1.0185 L 0.1125 0.15149999999999986 Q 0.1125 0.11249999999999982 0.13875 0.08624999999999994 Q 0.165 0.05999999999999983 0.20400000000000001 0.05999999999999983 M 0.9090322265625 0.9854999999999998 Q 0.8940322265625 0.9644999999999999 0.8955322265625 0.9314999999999999 Q 0.8970322265625 0.8984999999999999 0.9345322265625 0.8744999999999998 Q 0.9585322265625 0.8594999999999999 0.9855322265625 0.8617499999999999 Q 1.0125322265625 0.8639999999999999 1.0380322265625 0.8894999999999998 Q 1.0815322265625 0.9329999999999998 1.1295322265625 0.9569999999999999 Q 1.1775322265625001 0.9809999999999999 1.2495322265625 0.9809999999999999 Q 1.2720322265625001 0.9794999999999998 1.2990322265625 0.9742499999999998 Q 1.3260322265625 0.9689999999999999 1.3462822265625 0.9502499999999998 Q 1.3665322265625002 0.9314999999999999 1.3665322265625002 0.8924999999999998 Q 1.3665322265625002 0.8594999999999999 1.3440322265625 0.8399999999999999 Q 1.3215322265625 0.8204999999999999 1.2847822265625 0.8069999999999999 Q 1.2480322265625001 0.7934999999999999 1.2030322265625 0.7814999999999999 Q 1.1565322265625 0.7679999999999998 1.1077822265625 0.7514999999999998 Q 1.0590322265625 0.7349999999999999 1.0185322265625 0.7087499999999999 Q 0.9780322265625 0.6824999999999999 0.9525322265625 0.6389999999999998 Q 0.9270322265625 0.5954999999999999 0.9270322265625 0.5294999999999999 Q 0.9270322265625 0.4544999999999999 0.9690322265625 0.4019999999999999 Q 1.0110322265625 0.3494999999999998 1.0777822265625 0.32099999999999984 Q 1.1445322265625 0.29249999999999987 1.2180322265624999 0.29249999999999987 Q 1.2645322265625 0.29249999999999987 1.3155322265625 0.30374999999999985 Q 1.3665322265625002 0.31499999999999984 1.4130322265625002 0.3397499999999999 Q 1.4595322265625001 0.3644999999999998 1.4910322265625 0.4049999999999999 Q 1.5075322265625 0.4274999999999999 1.5105322265624999 0.45899999999999985 Q 1.5135322265625 0.4904999999999998 1.4820322265625 0.5159999999999999 Q 1.4595322265625001 0.5339999999999998 1.4295322265625 0.5317499999999998 Q 1.3995322265625 0.5294999999999999 1.3800322265625 0.5114999999999998 Q 1.3545322265625 0.4784999999999998 1.3117822265624999 0.45899999999999985 Q 1.2690322265625 0.4394999999999999 1.2135322265625 0.4394999999999999 Q 1.1910322265625 0.4394999999999999 1.1647822265625 0.44474999999999987 Q 1.1385322265625 0.44999999999999984 1.1190322265625001 0.46724999999999983 Q 1.0995322265625 0.4844999999999998 1.0995322265625 0.5219999999999999 Q 1.0995322265625 0.5564999999999999 1.1220322265625 0.5767499999999999 Q 1.1445322265625 0.5969999999999999 1.1827822265624999 0.6097499999999999 Q 1.2210322265625 0.6224999999999998 1.2645322265625 0.6344999999999998 Q 1.3095322265625 0.6464999999999999 1.3560322265625 0.6629999999999998 Q 1.4025322265625 0.6794999999999999 1.4415322265625 0.7064999999999999 Q 1.4805322265625 0.7334999999999998 1.5045322265625 0.7762499999999999 Q 1.5285322265625 0.819 1.5285322265625 0.8849999999999999 Q 1.5285322265625 0.9614999999999999 1.4835322265625002 1.0154999999999998 Q 1.4385322265625 1.0695 1.3710322265625 1.0972499999999998 Q 1.3035322265625 1.1249999999999998 1.2330322265625 1.1249999999999998 Q 1.1445322265625 1.1249999999999998 1.0560322265625 1.09425 Q 0.9675322265625 1.0635 0.9090322265625 0.9854999999999998 M 2.028024169921875 0.29249999999999987 Q 2.1135241699218748 0.29249999999999987 2.177274169921875 0.3104999999999999 Q 2.241024169921875 0.3284999999999999 2.276274169921875 0.3607499999999999 Q 2.311524169921875 0.3929999999999999 2.311524169921875 0.43799999999999983 Q 2.311524169921875 0.46799999999999986 2.293524169921875 0.49424999999999986 Q 2.275524169921875 0.5204999999999999 2.241024169921875 0.5204999999999999 Q 2.217024169921875 0.5204999999999999 2.201274169921875 0.5137499999999998 Q 2.185524169921875 0.5069999999999999 2.1735241699218752 0.49649999999999983 Q 2.161524169921875 0.4859999999999999 2.145024169921875 0.47699999999999987 Q 2.130024169921875 0.46799999999999986 2.099274169921875 0.4627499999999999 Q 2.068524169921875 0.4574999999999999 2.053524169921875 0.4574999999999999 Q 1.977024169921875 0.4574999999999999 1.923774169921875 0.4904999999999998 Q 1.8705241699218749 0.5234999999999999 1.8420241699218751 0.5797499999999999 Q 1.813524169921875 0.6359999999999999 1.813524169921875 0.7094999999999998 Q 1.813524169921875 0.7814999999999999 1.842774169921875 0.8377499999999999 Q 1.872024169921875 0.8939999999999999 1.923774169921875 0.9269999999999998 Q 1.975524169921875 0.9599999999999999 2.043024169921875 0.9599999999999999 Q 2.080524169921875 0.9599999999999999 2.107524169921875 0.9554999999999999 Q 2.134524169921875 0.9509999999999998 2.152524169921875 0.9419999999999998 Q 2.1735241699218752 0.9299999999999999 2.190024169921875 0.9164999999999999 Q 2.206524169921875 0.9029999999999998 2.239524169921875 0.9029999999999998 Q 2.278524169921875 0.9029999999999998 2.299524169921875 0.9277499999999999 Q 2.320524169921875 0.9524999999999999 2.320524169921875 0.9884999999999999 Q 2.320524169921875 1.0259999999999998 2.278524169921875 1.0567499999999999 Q 2.236524169921875 1.0875 2.168274169921875 1.10625 Q 2.100024169921875 1.1249999999999998 2.020524169921875 1.1249999999999998 Q 1.902024169921875 1.1249999999999998 1.815024169921875 1.07025 Q 1.728024169921875 1.0154999999999998 1.680774169921875 0.9209999999999998 Q 1.633524169921875 0.8264999999999998 1.633524169921875 0.7094999999999998 Q 1.633524169921875 0.5864999999999999 1.683774169921875 0.4927499999999999 Q 1.734024169921875 0.3989999999999999 1.823274169921875 0.3457499999999999 Q 1.9125241699218751 0.29249999999999987 2.028024169921875 0.29249999999999987 M 3.100546142578125 0.29249999999999987 Q 3.139546142578125 0.29249999999999987 3.165046142578125 0.31799999999999984 Q 3.1905461425781247 0.3434999999999998 3.1905461425781247 0.3839999999999999 L 3.1905461425781247 1.0185 Q 3.1905461425781247 1.0574999999999999 3.165046142578125 1.0837499999999998 Q 3.139546142578125 1.1099999999999999 3.100546142578125 1.1099999999999999 Q 3.061546142578125 1.1099999999999999 3.036046142578125 1.0837499999999998 Q 3.010546142578125 1.0574999999999999 3.010546142578125 1.0185 L 3.010546142578125 0.9449999999999998 L 3.043546142578125 0.9584999999999999 Q 3.043546142578125 0.9779999999999999 3.022546142578125 1.00575 Q 3.001546142578125 1.0334999999999999 2.965546142578125 1.0604999999999998 Q 2.929546142578125 1.0875 2.880796142578125 1.10625 Q 2.832046142578125 1.1249999999999998 2.775046142578125 1.1249999999999998 Q 2.671546142578125 1.1249999999999998 2.587546142578125 1.07175 Q 2.503546142578125 1.0185 2.454796142578125 0.9247499999999998 Q 2.406046142578125 0.8309999999999998 2.406046142578125 0.7094999999999998 Q 2.406046142578125 0.5864999999999999 2.454796142578125 0.4927499999999999 Q 2.503546142578125 0.3989999999999999 2.586046142578125 0.3457499999999999 Q 2.668546142578125 0.29249999999999987 2.769046142578125 0.29249999999999987 Q 2.833546142578125 0.29249999999999987 2.887546142578125 0.31199999999999983 Q 2.941546142578125 0.3314999999999999 2.981296142578125 0.3614999999999998 Q 3.021046142578125 0.39149999999999985 3.042796142578125 0.4222499999999999 Q 3.064546142578125 0.45299999999999985 3.064546142578125 0.47399999999999987 L 3.010546142578125 0.4934999999999998 L 3.010546142578125 0.3839999999999999 Q 3.010546142578125 0.34499999999999986 3.036046142578125 0.31874999999999987 Q 3.061546142578125 0.29249999999999987 3.100546142578125 0.29249999999999987 M 2.797546142578125 0.9599999999999999 Q 2.863546142578125 0.9599999999999999 2.913046142578125 0.9269999999999998 Q 2.962546142578125 0.8939999999999999 2.990296142578125 0.8369999999999999 Q 3.018046142578125 0.7799999999999998 3.018046142578125 0.7094999999999998 Q 3.018046142578125 0.6374999999999998 2.990296142578125 0.5804999999999999 Q 2.962546142578125 0.5234999999999999 2.913046142578125 0.4904999999999998 Q 2.863546142578125 0.4574999999999999 2.797546142578125 0.4574999999999999 Q 2.733046142578125 0.4574999999999999 2.683546142578125 0.4904999999999998 Q 2.634046142578125 0.5234999999999999 2.606296142578125 0.5804999999999999 Q 2.578546142578125 0.6374999999999998 2.578546142578125 0.7094999999999998 Q 2.578546142578125 0.7799999999999998 2.606296142578125 0.8369999999999999 Q 2.634046142578125 0.8939999999999999 2.683546142578125 0.9269999999999998 Q 2.733046142578125 0.9599999999999999 2.797546142578125 0.9599999999999999 M 3.80102490234375 0.29249999999999987 Q 3.90602490234375 0.29249999999999987 3.98927490234375 0.3457499999999999 Q 4.0725249023437495 0.3989999999999999 4.12127490234375 0.4919999999999999 Q 4.17002490234375 0.5849999999999999 4.17002490234375 0.7079999999999999 Q 4.17002490234375 0.8309999999999998 4.12127490234375 0.9247499999999998 Q 4.0725249023437495 1.0185 3.99077490234375 1.07175 Q 3.90902490234375 1.1249999999999998 3.80702490234375 1.1249999999999998 Q 3.74702490234375 1.1249999999999998 3.69452490234375 1.1055 Q 3.64202490234375 1.0859999999999999 3.60227490234375 1.0559999999999998 Q 3.56252490234375 1.0259999999999998 3.54077490234375 0.9952499999999999 Q 3.51902490234375 0.9644999999999999 3.51902490234375 0.9434999999999999 L 3.56552490234375 0.9239999999999999 L 3.56552490234375 1.3184999999999998 Q 3.56552490234375 1.3575 3.54002490234375 1.3837499999999998 Q 3.51452490234375 1.41 3.47552490234375 1.41 Q 3.43652490234375 1.41 3.41102490234375 1.3844999999999998 Q 3.38552490234375 1.359 3.38552490234375 1.3184999999999998 L 3.38552490234375 0.3989999999999999 Q 3.38552490234375 0.3599999999999999 3.41102490234375 0.3337499999999999 Q 3.43652490234375 0.3074999999999999 3.47552490234375 0.3074999999999999 Q 3.51452490234375 0.3074999999999999 3.54002490234375 0.3337499999999999 Q 3.56552490234375 0.3599999999999999 3.56552490234375 0.3989999999999999 L 3.56552490234375 0.4724999999999998 L 3.54002490234375 0.45899999999999985 Q 3.54002490234375 0.4394999999999999 3.56102490234375 0.41174999999999984 Q 3.58202490234375 0.3839999999999999 3.61802490234375 0.35624999999999984 Q 3.65402490234375 0.3284999999999999 3.70127490234375 0.3104999999999999 Q 3.74852490234375 0.29249999999999987 3.80102490234375 0.29249999999999987 M 3.77852490234375 0.4574999999999999 Q 3.71252490234375 0.4574999999999999 3.66302490234375 0.4904999999999998 Q 3.61352490234375 0.5234999999999999 3.58577490234375 0.5797499999999999 Q 3.55802490234375 0.6359999999999999 3.55802490234375 0.7079999999999999 Q 3.55802490234375 0.7784999999999999 3.58577490234375 0.8362499999999999 Q 3.61352490234375 0.8939999999999999 3.66302490234375 0.9269999999999998 Q 3.71252490234375 0.9599999999999999 3.77852490234375 0.9599999999999999 Q 3.8445249023437498 0.9599999999999999 3.89327490234375 0.9269999999999998 Q 3.94202490234375 0.8939999999999999 3.96977490234375 0.8362499999999999 Q 3.9975249023437502 0.7784999999999999 3.9975249023437502 0.7079999999999999 Q 3.9975249023437502 0.6359999999999999 3.96977490234375 0.5797499999999999 Q 3.94202490234375 0.5234999999999999 3.89327490234375 0.4904999999999998 Q 3.8445249023437498 0.4574999999999999 3.77852490234375 0.4574999999999999 M 4.690503662109375 1.1249999999999998 Q 4.5630036621093755 1.1249999999999998 4.469253662109375 1.07175 Q 4.375503662109375 1.0185 4.325253662109375 0.9269999999999998 Q 4.275003662109375 0.8354999999999999 4.275003662109375 0.7199999999999999 Q 4.275003662109375 0.5849999999999999 4.329753662109375 0.4897499999999999 Q 4.384503662109375 0.39449999999999985 4.473003662109375 0.3434999999999998 Q 4.561503662109375 0.29249999999999987 4.660503662109375 0.29249999999999987 Q 4.737003662109375 0.29249999999999987 4.805253662109375 0.32399999999999984 Q 4.873503662109375 0.3554999999999998 4.926003662109375 0.4102499999999999 Q 4.978503662109375 0.46499999999999986 5.009253662109375 0.5369999999999998 Q 5.040003662109375 0.6089999999999999 5.040003662109375 0.69 Q 5.038503662109375 0.7259999999999999 5.011503662109375 0.7484999999999999 Q 4.9845036621093755 0.7709999999999999 4.948503662109375 0.7709999999999999 L 4.375503662109375 0.7709999999999999 L 4.330503662109375 0.6209999999999999 L 4.881003662109375 0.6209999999999999 L 4.848003662109375 0.6509999999999998 L 4.848003662109375 0.6104999999999998 Q 4.8450036621093755 0.5669999999999998 4.817253662109375 0.5324999999999999 Q 4.789503662109375 0.4979999999999999 4.748253662109375 0.4777499999999999 Q 4.707003662109375 0.4574999999999999 4.660503662109375 0.4574999999999999 Q 4.615503662109375 0.4574999999999999 4.576503662109375 0.4694999999999999 Q 4.537503662109375 0.4814999999999998 4.509003662109375 0.5099999999999999 Q 4.480503662109375 0.5384999999999999 4.464003662109375 0.5864999999999999 Q 4.447503662109375 0.6344999999999998 4.447503662109375 0.7079999999999999 Q 4.447503662109375 0.7889999999999999 4.481253662109375 0.8452499999999998 Q 4.515003662109375 0.9014999999999999 4.568253662109375 0.9307499999999999 Q 4.621503662109375 0.9599999999999999 4.681503662109375 0.9599999999999999 Q 4.737003662109375 0.9599999999999999 4.770003662109375 0.9509999999999998 Q 4.803003662109375 0.9419999999999998 4.823253662109375 0.9292499999999999 Q 4.843503662109375 0.9164999999999999 4.860003662109375 0.9074999999999999 Q 4.887003662109375 0.8939999999999999 4.911003662109375 0.8939999999999999 Q 4.944003662109375 0.8939999999999999 4.965753662109375 0.9164999999999999 Q 4.987503662109375 0.9389999999999998 4.987503662109375 0.9689999999999999 Q 4.987503662109375 1.0094999999999998 4.945503662109375 1.0425 Q 4.906503662109375 1.0755 4.836003662109375 1.10025 Q 4.765503662109375 1.1249999999999998 4.690503662109375 1.1249999999999998 M 5.299529296875 0.058499999999999774 Q 5.320529296875 0.058499999999999774 5.343779296875 0.06974999999999976 Q 5.367029296875 0.08099999999999996 5.379029296875 0.09899999999999975 L 5.743529296875 0.6599999999999999 L 5.6685292968750005 0.6569999999999998 L 6.0420292968750005 0.09899999999999975 Q 6.070529296875 0.058499999999999774 6.115529296875 0.058499999999999774 Q 6.151529296875 0.058499999999999774 6.180029296875 0.08399999999999985 Q 6.208529296875 0.10949999999999993 6.208529296875 0.1499999999999999 L 6.208529296875 1.0185 Q 6.208529296875 1.0574999999999999 6.1830292968750005 1.0837499999999998 Q 6.1575292968749995 1.1099999999999999 6.115529296875 1.1099999999999999 Q 6.073529296875 1.1099999999999999 6.047279296875 1.0837499999999998 Q 6.021029296875 1.0574999999999999 6.021029296875 1.0185 L 6.021029296875 0.31199999999999983 L 6.079529296875 0.3254999999999999 L 5.773529296875 0.7919999999999998 Q 5.760029296875 0.8084999999999999 5.739779296875 0.8204999999999999 Q 5.719529296875 0.8324999999999998 5.698529296875 0.8309999999999998 Q 5.679029296875 0.8324999999999998 5.658779296875 0.8204999999999999 Q 5.638529296875 0.8084999999999999 5.625029296875 0.7919999999999998 L 5.338529296875 0.33899999999999986 L 5.377529296875 0.25949999999999984 L 5.377529296875 1.0185 Q 5.377529296875 1.0574999999999999 5.353529296875 1.0837499999999998 Q 5.329529296875 1.1099999999999999 5.290529296875 1.1099999999999999 Q 5.253029296875 1.1099999999999999 5.229029296875 1.0837499999999998 Q 5.205029296875 1.0574999999999999 5.205029296875 1.0185 L 5.205029296875 0.1499999999999999 Q 5.205029296875 0.11249999999999982 5.232779296875 0.08549999999999991 Q 5.260529296875 0.058499999999999774 5.299529296875 0.058499999999999774 M 6.78898388671875 1.1249999999999998 Q 6.6614838867187505 1.1249999999999998 6.56773388671875 1.07175 Q 6.47398388671875 1.0185 6.42373388671875 0.9269999999999998 Q 6.37348388671875 0.8354999999999999 6.37348388671875 0.7199999999999999 Q 6.37348388671875 0.5849999999999999 6.42823388671875 0.4897499999999999 Q 6.48298388671875 0.39449999999999985 6.57148388671875 0.3434999999999998 Q 6.65998388671875 0.29249999999999987 6.75898388671875 0.29249999999999987 Q 6.83548388671875 0.29249999999999987 6.90373388671875 0.32399999999999984 Q 6.97198388671875 0.3554999999999998 7.02448388671875 0.4102499999999999 Q 7.07698388671875 0.46499999999999986 7.10773388671875 0.5369999999999998 Q 7.13848388671875 0.6089999999999999 7.13848388671875 0.69 Q 7.13698388671875 0.7259999999999999 7.10998388671875 0.7484999999999999 Q 7.0829838867187505 0.7709999999999999 7.04698388671875 0.7709999999999999 L 6.47398388671875 0.7709999999999999 L 6.42898388671875 0.6209999999999999 L 6.97948388671875 0.6209999999999999 L 6.94648388671875 0.6509999999999998 L 6.94648388671875 0.6104999999999998 Q 6.9434838867187505 0.5669999999999998 6.91573388671875 0.5324999999999999 Q 6.88798388671875 0.4979999999999999 6.84673388671875 0.4777499999999999 Q 6.80548388671875 0.4574999999999999 6.75898388671875 0.4574999999999999 Q 6.71398388671875 0.4574999999999999 6.67498388671875 0.4694999999999999 Q 6.63598388671875 0.4814999999999998 6.60748388671875 0.5099999999999999 Q 6.57898388671875 0.5384999999999999 6.56248388671875 0.5864999999999999 Q 6.54598388671875 0.6344999999999998 6.54598388671875 0.7079999999999999 Q 6.54598388671875 0.7889999999999999 6.57973388671875 0.8452499999999998 Q 6.61348388671875 0.9014999999999999 6.66673388671875 0.9307499999999999 Q 6.71998388671875 0.9599999999999999 6.77998388671875 0.9599999999999999 Q 6.83548388671875 0.9599999999999999 6.86848388671875 0.9509999999999998 Q 6.90148388671875 0.9419999999999998 6.92173388671875 0.9292499999999999 Q 6.94198388671875 0.9164999999999999 6.95848388671875 0.9074999999999999 Q 6.98548388671875 0.8939999999999999 7.00948388671875 0.8939999999999999 Q 7.04248388671875 0.8939999999999999 7.06423388671875 0.9164999999999999 Q 7.08598388671875 0.9389999999999998 7.08598388671875 0.9689999999999999 Q 7.08598388671875 1.0094999999999998 7.04398388671875 1.0425 Q 7.00498388671875 1.0755 6.93448388671875 1.10025 Q 6.86398388671875 1.1249999999999998 6.78898388671875 1.1249999999999998 M 7.938009521484375 -2.220446049250313e-16 Q 7.977009521484375 -2.220446049250313e-16 8.002509521484376 0.025499999999999856 Q 8.028009521484375 0.050999999999999934 8.028009521484375 0.09149999999999991 L 8.028009521484375 1.0185 Q 8.028009521484375 1.0574999999999999 8.002509521484376 1.0837499999999998 Q 7.977009521484375 1.1099999999999999 7.938009521484375 1.1099999999999999 Q 7.899009521484375 1.1099999999999999 7.873509521484375 1.0837499999999998 Q 7.848009521484375 1.0574999999999999 7.848009521484375 1.0185 L 7.848009521484375 0.9449999999999998 L 7.881009521484375 0.9584999999999999 Q 7.881009521484375 0.9779999999999999 7.8600095214843755 1.00575 Q 7.839009521484375 1.0334999999999999 7.803009521484375 1.0604999999999998 Q 7.7670095214843755 1.0875 7.718259521484375 1.10625 Q 7.669509521484375 1.1249999999999998 7.612509521484375 1.1249999999999998 Q 7.509009521484375 1.1249999999999998 7.425009521484375 1.07175 Q 7.341009521484375 1.0185 7.292259521484375 0.9247499999999998 Q 7.243509521484375 0.8309999999999998 7.243509521484375 0.7094999999999998 Q 7.243509521484375 0.5864999999999999 7.292259521484375 0.4927499999999999 Q 7.341009521484375 0.3989999999999999 7.423509521484375 0.3457499999999999 Q 7.506009521484375 0.29249999999999987 7.606509521484375 0.29249999999999987 Q 7.671009521484375 0.29249999999999987 7.725009521484375 0.31199999999999983 Q 7.779009521484375 0.3314999999999999 7.818759521484375 0.3614999999999998 Q 7.858509521484375 0.39149999999999985 7.880259521484375 0.4222499999999999 Q 7.902009521484375 0.45299999999999985 7.902009521484375 0.47399999999999987 L 7.848009521484375 0.4934999999999998 L 7.848009521484375 0.09149999999999991 Q 7.848009521484375 0.05249999999999977 7.873509521484375 0.026249999999999885 Q 7.899009521484375 -2.220446049250313e-16 7.938009521484375 -2.220446049250313e-16 M 7.635009521484375 0.9599999999999999 Q 7.701009521484375 0.9599999999999999 7.750509521484375 0.9269999999999998 Q 7.800009521484375 0.8939999999999999 7.827759521484375 0.8369999999999999 Q 7.855509521484375 0.7799999999999998 7.855509521484375 0.7094999999999998 Q 7.855509521484375 0.6374999999999998 7.827759521484375 0.5804999999999999 Q 7.800009521484375 0.5234999999999999 7.750509521484375 0.4904999999999998 Q 7.701009521484375 0.4574999999999999 7.635009521484375 0.4574999999999999 Q 7.570509521484375 0.4574999999999999 7.521009521484375 0.4904999999999998 Q 7.471509521484375 0.5234999999999999 7.443759521484375 0.5804999999999999 Q 7.416009521484375 0.6374999999999998 7.416009521484375 0.7094999999999998 Q 7.416009521484375 0.7799999999999998 7.443759521484375 0.8369999999999999 Q 7.471509521484375 0.8939999999999999 7.521009521484375 0.9269999999999998 Q 7.570509521484375 0.9599999999999999 7.635009521484375 0.9599999999999999" fill="#382d5e" fill-rule="nonzero"></path></g><g></g></g><defs><clipPath id="SvgjsClipPath5385"><path d=" M 8.52548828125 -0.6091778214688681 h 3.1234120289819733 v 2.328355642937736 h -3.1234120289819733 Z"></path></clipPath><clipPath id="SvgjsClipPath5383b28996cd-3c67-453d-b685-88e7199ee47a"><path d=" M 8.52548828125 -0.6091778214688683 L 11.648900310231973 -0.6091778214688683 L 11.648900310231973 1.7191778214688684 L 8.52548828125 1.7191778214688684 Z"></path></clipPath></defs></svg>